<?xml version="1.0" standalone="no"?>
<!DOCTYPE svg PUBLIC "-//W3C//DTD SVG 20010904//EN"
 "http://www.w3.org/TR/2001/REC-SVG-20010904/DTD/svg10.dtd">
<svg version="1.0" xmlns="http://www.w3.org/2000/svg"
 width="899.000000pt" height="899.000000pt" viewBox="0 0 899.000000 899.000000"
 preserveAspectRatio="xMidYMid meet">
<metadata>
Created by potrace 1.14, written by Peter Selinger 2001-2017
</metadata>
<g transform="translate(0.000000,899.000000) scale(0.100000,-0.100000)"
fill="#000000" stroke="none">
<path d="M2670 8980 c0 -6 -6 -9 -12 -7 -7 1 -12 -4 -10 -10 1 -7 -2 -13 -6
-13 -4 0 -14 6 -21 13 -11 10 -11 8 -1 -13 10 -21 10 -23 -1 -12 -17 16 -34
16 -20 -1 8 -10 7 -14 -4 -14 -8 0 -15 4 -15 9 0 5 -4 7 -10 3 -5 -3 -6 -13
-3 -23 6 -15 3 -14 -16 2 -17 16 -20 16 -16 4 8 -19 -11 -33 -21 -17 -5 8 -3
9 6 4 9 -5 11 -4 6 4 -4 6 -12 9 -17 5 -5 -3 -6 -10 -3 -16 5 -8 1 -9 -11 -4
-18 6 -18 6 1 -16 10 -12 12 -18 4 -12 -8 6 -24 14 -34 18 -17 6 -17 5 -5 -11
9 -11 10 -14 2 -9 -7 4 -13 3 -13 -2 0 -6 -11 -13 -25 -16 -14 -4 -25 -11 -25
-17 0 -6 -4 -8 -9 -4 -5 3 -12 -3 -16 -14 -3 -11 -13 -25 -23 -33 -15 -11 -16
-11 -7 2 6 9 1 6 -10 -7 -12 -13 -27 -23 -35 -23 -13 0 -13 -2 0 -10 11 -7 12
-10 2 -10 -19 0 -94 -78 -87 -90 3 -6 -1 -7 -9 -4 -10 4 -16 1 -16 -9 0 -9 -6
-20 -13 -24 -8 -4 -24 -22 -37 -40 -13 -18 -28 -29 -34 -26 -6 4 -5 0 2 -9 10
-13 10 -18 1 -24 -8 -5 -10 -3 -5 7 4 8 -1 3 -12 -10 -13 -16 -25 -22 -37 -17
-15 5 -16 4 -6 -8 10 -12 8 -13 -11 -9 -13 3 -20 2 -16 -2 5 -5 -2 -15 -14
-24 -28 -19 -50 -23 -42 -8 3 7 -1 4 -9 -6 -13 -15 -15 -16 -21 -2 -3 8 -11
15 -18 15 -9 0 -9 -3 0 -12 7 -7 12 -16 12 -21 0 -5 -9 1 -20 14 -10 13 -19
19 -20 14 0 -6 5 -16 12 -23 9 -9 9 -12 0 -12 -7 0 -12 5 -12 11 0 5 -5 7 -11
3 -8 -4 -7 0 1 15 6 12 16 18 22 15 7 -5 8 -2 2 7 -6 10 -1 9 17 -3 20 -13 26
-13 26 -3 0 8 -3 12 -7 10 -3 -2 -12 0 -20 5 -10 6 -11 12 -3 22 8 10 7 17 -4
27 -13 12 -14 11 -8 -9 5 -16 4 -20 -4 -16 -6 4 -11 4 -10 -1 3 -19 -2 -34 -9
-29 -5 3 -9 0 -10 -7 -7 -54 -15 -68 -30 -51 -4 4 -1 4 7 -1 10 -6 12 -4 7 4
-9 13 -19 8 -22 -12 -1 -7 -5 -23 -7 -37 -3 -14 -6 -27 -6 -29 -1 -2 -9 3 -18
10 -13 11 -15 11 -9 1 5 -8 1 -21 -10 -33 -12 -14 -14 -19 -5 -17 7 2 16 -3
19 -11 2 -8 0 -11 -6 -7 -12 7 -25 -22 -15 -37 5 -9 3 -9 -8 -1 -19 14 -45 11
-42 -4 2 -7 -1 -12 -7 -12 -5 0 -6 -8 -3 -17 7 -17 6 -17 -11 0 -24 23 -26 22
-16 -12 8 -30 5 -41 -14 -41 -6 0 -4 5 4 11 13 9 13 10 0 6 -8 -2 -14 -14 -14
-25 1 -12 -3 -22 -8 -22 -5 0 -6 -4 -3 -10 3 -5 -2 -10 -12 -11 -11 0 -13 -3
-5 -6 10 -4 10 -10 -3 -29 -14 -22 -14 -23 2 -17 14 5 13 1 -4 -16 -25 -24
-30 -37 -10 -25 8 6 8 3 -1 -9 -8 -9 -11 -21 -7 -27 3 -5 2 -10 -3 -10 -5 0
-8 -13 -6 -29 3 -22 -1 -31 -14 -34 -14 -4 -14 -5 2 -6 18 -1 18 -2 -3 -25
-15 -16 -19 -26 -12 -31 6 -3 8 -11 5 -17 -4 -7 -2 -8 5 -4 8 6 9 12 2 20 -10
12 -5 26 8 26 5 0 6 -59 2 -79 -1 -2 -11 4 -23 15 -12 10 -18 13 -14 7 4 -8 1
-13 -9 -13 -13 0 -14 4 -4 23 11 20 11 21 -4 8 -15 -12 -17 -11 -17 13 0 14
-4 26 -10 26 -5 0 -10 6 -10 14 0 8 -7 16 -15 20 -13 5 -13 1 1 -27 16 -30 16
-31 0 -18 -14 12 -16 12 -10 -4 6 -14 4 -16 -7 -10 -12 8 -12 6 0 -8 7 -9 11
-23 8 -31 -3 -7 0 -19 6 -26 9 -10 9 -14 -1 -17 -10 -4 -10 -8 -1 -19 9 -11 8
-14 -2 -14 -11 0 -11 -2 1 -10 11 -7 11 -10 2 -10 -9 0 -10 -5 -4 -17 5 -10 8
-35 7 -55 -1 -21 2 -35 6 -32 14 8 11 -10 -3 -25 -11 -10 -10 -11 5 -5 13 5
16 2 11 -10 -3 -9 -11 -13 -17 -9 -7 4 -8 0 -4 -11 5 -13 3 -16 -11 -14 -9 2
-16 10 -14 17 1 7 -2 10 -7 7 -5 -4 -17 4 -25 16 -9 12 -16 19 -16 15 0 -4 -6
-2 -14 5 -10 10 -11 15 -2 21 7 6 6 7 -3 5 -17 -5 -24 -38 -8 -35 7 1 11 -4 9
-12 -2 -8 3 -11 12 -8 10 4 13 1 9 -8 -3 -8 -10 -12 -16 -8 -6 4 -7 1 -2 -7 6
-10 3 -12 -11 -7 -18 7 -18 6 1 -8 18 -14 21 -14 37 7 16 21 18 21 12 3 -4
-14 -3 -16 3 -7 8 11 12 10 21 -1 10 -12 8 -14 -14 -11 -18 2 -24 -1 -20 -11
3 -9 0 -12 -8 -9 -8 3 -17 0 -21 -6 -3 -6 -3 -10 2 -9 23 4 42 -3 47 -17 5
-12 3 -14 -7 -8 -7 5 -4 1 6 -8 11 -10 16 -19 13 -19 -10 -2 -25 -6 -33 -9 -5
-1 -12 -2 -16 -1 -5 1 -6 -3 -2 -9 5 -7 11 -8 19 -1 8 7 15 4 24 -9 9 -14 9
-21 0 -26 -7 -4 -8 -3 -4 4 4 7 1 12 -8 12 -9 0 -15 -6 -14 -12 2 -7 -2 -12
-8 -11 -12 2 -12 -13 0 -79 2 -16 -1 -31 -6 -35 -7 -3 -8 -1 -4 5 4 7 4 12 -1
12 -14 0 -46 -64 -33 -68 8 -3 7 -9 -2 -20 -12 -15 -11 -16 5 -3 15 12 20 12
30 1 8 -9 8 -11 1 -7 -7 4 -15 0 -18 -9 -3 -8 -2 -13 3 -10 11 7 23 -22 14
-36 -3 -7 -1 -8 5 -4 15 9 16 -6 2 -22 -7 -9 -7 -9 2 -2 20 16 32 11 17 -7
-10 -11 -10 -14 -1 -9 6 4 12 2 12 -3 0 -6 7 -11 16 -11 8 0 12 -4 9 -10 -3
-5 -1 -10 4 -10 6 0 11 -5 11 -11 0 -5 -5 -7 -12 -3 -7 4 -8 3 -4 -4 4 -6 14
-8 23 -5 11 4 14 3 9 -5 -6 -11 5 -17 27 -13 4 0 7 -4 7 -10 0 -6 -7 -8 -17
-5 -14 6 -14 3 3 -15 17 -21 17 -22 1 -16 -13 5 -16 3 -10 -6 4 -6 8 -19 10
-27 1 -10 -3 -9 -13 4 -15 21 -19 10 -5 -13 10 -16 -8 -53 -21 -45 -4 3 -5 -1
-2 -9 3 -8 0 -18 -5 -22 -6 -3 -8 -12 -4 -18 4 -7 -1 -6 -10 2 -15 12 -17 12
-11 -4 6 -14 4 -16 -7 -11 -8 4 -5 0 6 -10 20 -16 20 -16 -3 -11 -20 5 -22 3
-10 -11 11 -13 11 -15 -3 -10 -12 5 -14 0 -11 -23 3 -18 8 -26 16 -22 8 5 8 3
-1 -8 -16 -20 -17 -31 -3 -39 8 -5 8 -9 -3 -13 -11 -4 -14 2 -12 24 1 16 -1
26 -5 24 -5 -3 -7 -13 -5 -23 1 -9 -2 -23 -8 -30 -6 -7 -6 -12 -1 -11 22 4 44
-2 44 -12 0 -6 -6 -9 -14 -6 -10 4 -12 0 -9 -14 3 -10 10 -19 15 -19 5 0 7 3
4 8 -2 4 3 16 11 27 9 11 13 13 10 5 -2 -8 3 -24 12 -35 15 -18 15 -19 0 -7
-14 10 -18 10 -23 -3 -3 -9 -2 -13 4 -10 6 3 10 -1 10 -9 0 -9 6 -16 13 -16 7
0 5 -5 -4 -10 -13 -8 -15 -17 -9 -45 4 -19 5 -35 1 -35 -3 0 1 -5 9 -10 12 -8
12 -10 1 -10 -11 0 -11 -3 -1 -15 9 -11 10 -15 1 -15 -8 0 -7 -5 3 -15 8 -8
13 -24 11 -35 -2 -11 -1 -19 3 -17 4 1 9 -2 10 -8 2 -5 8 -15 13 -22 7 -7 6
-14 -1 -18 -8 -5 -6 -13 6 -26 13 -15 14 -19 3 -19 -8 0 -10 -3 -4 -8 12 -8
13 -32 2 -49 -5 -7 -4 -13 0 -13 5 0 8 -19 7 -42 -1 -24 4 -49 10 -57 8 -10 8
-13 0 -8 -14 8 -14 -165 1 -175 6 -5 6 -8 0 -8 -11 0 -13 -85 -2 -96 4 -4 2
-13 -4 -21 -6 -7 -7 -13 -2 -13 5 0 9 -10 8 -22 -1 -13 3 -29 9 -37 8 -11 8
-13 -1 -7 -15 9 -16 5 -4 -28 7 -17 7 -26 -1 -28 -6 -2 -4 -11 6 -21 16 -15
16 -17 1 -17 -10 0 -13 -4 -8 -12 4 -7 8 -26 8 -43 0 -16 4 -35 8 -42 4 -6 3
-15 -3 -18 -8 -5 -7 -11 1 -21 9 -11 8 -18 -2 -31 -8 -10 -9 -14 -2 -10 15 9
14 -35 -2 -45 -6 -5 -6 -8 3 -8 8 0 12 -18 12 -56 0 -30 5 -65 11 -76 8 -16 8
-19 -1 -13 -9 6 -9 2 0 -14 6 -12 12 -35 12 -52 1 -16 5 -29 11 -29 5 0 7 -9
4 -21 -3 -12 0 -22 9 -26 12 -4 12 -8 2 -21 -9 -11 -9 -13 -1 -9 8 5 11 -2 11
-24 -1 -17 3 -34 8 -37 14 -11 15 -32 1 -32 -9 0 -9 -2 0 -8 8 -5 6 -14 -8
-31 -10 -13 -19 -17 -19 -10 0 7 -3 10 -6 6 -4 -3 -21 5 -38 18 -25 19 -35 22
-44 13 -9 -9 -12 -9 -12 0 0 7 -3 11 -7 11 -5 -1 -10 -1 -13 1 -17 6 -60 7
-60 1 0 -4 -8 -8 -17 -9 -42 -4 -58 -10 -56 -20 2 -6 -4 -9 -12 -6 -8 4 -15 1
-15 -6 0 -7 -7 -10 -16 -6 -8 3 -13 2 -10 -3 7 -11 -18 -33 -27 -24 -4 3 -8 1
-8 -5 -3 -27 -4 -31 -13 -39 -5 -5 -6 -2 -1 6 5 9 4 12 -4 10 -7 -3 -13 -9
-13 -14 -1 -6 -8 -15 -16 -21 -8 -6 -12 -16 -9 -21 4 -6 0 -14 -9 -17 -9 -4
-14 -9 -11 -12 3 -3 -3 -14 -14 -25 -11 -11 -17 -24 -14 -29 3 -4 1 -10 -5
-12 -6 -2 -12 -14 -15 -27 -2 -14 -10 -28 -16 -31 -6 -4 -10 -10 -10 -14 1
-13 -14 -42 -28 -54 -14 -11 -14 -11 0 -6 10 3 20 0 24 -6 3 -6 3 -10 -2 -9
-26 4 -34 -2 -28 -22 5 -15 4 -19 -4 -15 -7 5 -11 -2 -11 -19 0 -18 -4 -24
-12 -19 -10 6 -10 4 0 -8 10 -13 10 -17 -1 -21 -9 -3 -13 -16 -12 -31 2 -14
-1 -29 -6 -32 -6 -3 -5 -11 2 -20 7 -8 7 -14 1 -14 -14 0 -22 -39 -10 -47 7
-4 8 -1 3 7 -6 9 -4 11 4 5 9 -5 10 -10 2 -18 -15 -15 -14 -64 2 -70 9 -4 9
-6 -1 -6 -9 -1 -10 -6 -2 -20 7 -14 6 -21 -3 -24 -9 -4 -9 -6 1 -6 6 -1 12
-10 12 -21 0 -11 4 -20 9 -20 4 0 8 -8 8 -17 0 -52 3 -64 15 -57 10 6 10 5 0
-8 -10 -12 -9 -18 3 -28 9 -7 14 -19 11 -27 -3 -7 -1 -13 5 -13 6 0 9 -7 6
-15 -4 -8 -2 -17 4 -20 5 -4 7 -11 4 -16 -4 -5 0 -9 7 -9 11 0 10 -2 0 -9 -11
-7 -11 -9 2 -14 10 -4 16 -18 16 -36 0 -16 5 -33 10 -36 6 -4 10 -14 9 -23 -3
-26 12 -53 25 -45 6 4 6 0 -2 -9 -10 -13 -10 -19 3 -32 9 -9 13 -16 8 -16 -4
0 -1 -5 7 -10 11 -7 12 -10 2 -10 -10 0 -9 -4 3 -16 9 -9 13 -24 10 -35 -4
-13 -2 -19 8 -19 9 0 13 -9 12 -25 -2 -14 1 -25 7 -25 6 0 8 -7 4 -15 -3 -9 1
-15 11 -15 13 0 13 -3 3 -15 -9 -10 -9 -15 -1 -15 6 0 11 -9 11 -20 0 -11 5
-20 11 -20 7 0 9 -9 6 -21 -4 -15 -2 -19 9 -15 12 4 12 2 4 -14 -7 -14 -7 -20
0 -20 5 0 10 -9 10 -20 0 -11 5 -20 10 -20 6 0 10 -9 10 -20 0 -11 5 -20 10
-20 6 0 10 -9 10 -20 0 -11 5 -20 10 -20 6 0 10 -9 10 -20 0 -11 4 -20 8 -20
5 0 19 -20 32 -45 13 -25 25 -43 27 -41 7 6 50 -38 46 -46 -2 -5 5 -8 17 -8
12 0 19 -3 17 -7 -6 -9 13 -27 33 -31 7 -2 22 -12 31 -23 10 -11 19 -20 21
-20 9 2 68 -24 68 -31 0 -4 9 -5 20 -3 11 2 20 1 20 -4 0 -7 54 -29 91 -36 24
-5 61 -43 53 -56 -3 -5 -2 -15 3 -22 14 -23 21 -117 9 -135 -4 -8 0 -12 11
-12 10 0 14 -4 8 -8 -12 -8 -16 -42 -5 -42 4 0 7 -16 5 -35 -1 -20 2 -38 7
-41 4 -3 6 -9 3 -14 -3 -5 -1 -11 5 -15 5 -3 10 -19 10 -34 0 -15 4 -31 9 -37
10 -10 22 -55 25 -91 1 -14 5 -18 12 -12 13 11 13 -28 0 -49 -5 -9 -1 -15 13
-19 20 -5 20 -6 4 -19 -11 -9 -13 -13 -4 -12 7 2 15 -6 17 -16 1 -10 9 -23 16
-27 10 -7 10 -9 -2 -9 -9 -1 -5 -6 10 -15 14 -8 19 -14 12 -15 -10 0 -9 -4 2
-16 9 -8 14 -20 11 -25 -4 -5 1 -9 10 -9 9 0 14 -4 10 -9 -3 -6 4 -19 16 -30
13 -12 18 -24 13 -33 -6 -10 -3 -9 10 1 9 8 16 10 15 5 -4 -21 2 -35 11 -29 6
3 10 -1 10 -9 0 -9 5 -16 11 -16 5 0 8 -4 5 -8 -3 -5 4 -16 15 -25 10 -9 19
-13 19 -9 0 4 6 -4 13 -18 8 -14 19 -24 25 -22 7 1 12 -5 12 -14 0 -8 4 -12
10 -9 6 3 10 1 10 -5 0 -6 5 -8 12 -4 6 4 8 3 5 -3 -6 -10 27 -43 44 -43 5 0
8 -4 4 -9 -3 -6 3 -8 14 -6 13 2 22 -3 26 -16 4 -11 11 -17 16 -14 5 4 9 1 9
-5 0 -7 7 -9 16 -6 8 3 12 2 9 -3 -3 -5 4 -12 15 -16 11 -3 20 -11 20 -16 0
-6 4 -8 9 -5 5 3 20 -5 33 -17 14 -13 34 -23 46 -22 11 1 18 -3 16 -10 -3 -6
11 -17 31 -25 19 -7 35 -18 35 -22 0 -5 4 -6 10 -3 5 3 10 1 10 -5 0 -6 5 -8
10 -5 6 3 10 1 10 -4 0 -6 5 -11 11 -11 5 0 7 5 3 11 -3 6 5 3 20 -6 14 -10
26 -21 26 -25 0 -5 9 -6 20 -3 14 4 20 0 20 -11 0 -10 5 -13 17 -9 12 5 14 3
8 -7 -6 -10 -4 -12 9 -7 14 5 17 3 12 -8 -7 -18 10 -21 17 -2 4 9 8 8 16 -3 8
-11 11 -12 11 -2 0 10 4 9 16 -3 9 -9 22 -14 29 -11 8 3 16 -2 19 -10 3 -8 10
-14 16 -14 6 0 8 6 4 13 -6 10 26 -13 46 -33 3 -3 14 -7 25 -8 11 -2 22 -8 23
-13 2 -5 8 -7 13 -4 5 3 19 0 31 -7 13 -7 27 -12 31 -13 4 0 12 -6 16 -14 5
-7 14 -10 21 -6 6 4 23 -3 37 -16 15 -13 23 -18 19 -12 -5 9 -2 11 8 7 9 -3
16 -10 16 -15 0 -4 6 -6 14 -3 8 3 24 -5 37 -18 13 -13 35 -25 49 -26 14 -2
31 -9 39 -15 12 -10 13 -9 7 2 -6 9 -5 12 5 9 8 -3 13 -10 12 -15 -1 -5 11 -9
27 -8 16 1 27 -2 24 -7 -3 -4 2 -8 11 -8 9 0 14 -4 10 -9 -3 -6 3 -14 12 -20
16 -9 15 -10 -7 -11 -20 0 -22 -2 -10 -10 13 -9 7 -14 -12 -11 -5 0 -8 -3 -8
-9 0 -6 -3 -9 -7 -8 -18 6 -163 -60 -163 -74 0 -4 -3 -7 -7 -6 -12 3 -83 -35
-83 -44 0 -4 -6 -5 -13 -2 -7 2 -25 -6 -39 -18 -14 -13 -32 -24 -39 -26 -8 -2
-15 -8 -17 -13 -2 -5 -9 -9 -16 -9 -13 0 -66 -57 -66 -72 0 -5 -5 -6 -12 -2
-6 4 -8 3 -4 -4 3 -6 0 -16 -7 -24 -8 -7 -13 -23 -12 -35 1 -12 -3 -21 -9 -20
-6 1 -10 -4 -8 -12 2 -8 -3 -11 -12 -8 -10 4 -13 1 -9 -8 3 -8 10 -12 17 -8 6
3 3 -3 -7 -15 -11 -12 -16 -26 -11 -33 4 -7 3 -10 -3 -6 -6 4 -13 0 -16 -7 -3
-8 -1 -17 6 -20 9 -3 8 -5 -1 -5 -7 -1 -10 -5 -7 -11 3 -5 2 -10 -4 -10 -5 0
-10 -8 -10 -18 -1 -36 -5 -52 -11 -52 -4 0 -6 -12 -5 -28 1 -15 -3 -30 -9 -34
-7 -5 -7 -8 2 -8 10 0 10 -5 2 -20 -8 -15 -8 -20 2 -20 9 0 9 -3 -2 -10 -8 -5
-10 -10 -5 -10 6 0 3 -5 -5 -10 -12 -8 -12 -10 5 -10 13 0 16 -3 8 -8 -7 -4
-13 -34 -15 -67 -1 -33 -7 -66 -12 -74 -8 -11 -8 -13 2 -7 10 6 10 2 0 -21 -6
-15 -17 -34 -22 -42 -9 -12 -8 -13 4 -6 11 6 11 4 -2 -11 -9 -10 -16 -23 -16
-27 0 -5 -12 -22 -26 -38 -14 -16 -24 -29 -21 -29 3 0 0 -6 -7 -14 -7 -8 -17
-13 -23 -13 -5 1 -9 -8 -9 -20 1 -15 -3 -20 -14 -15 -10 3 -13 1 -8 -6 3 -6 2
-13 -4 -17 -7 -4 -7 -12 0 -26 8 -13 7 -19 0 -19 -13 0 -70 -50 -70 -62 0 -12
3741 -10 3760 2 13 8 12 10 -5 11 -11 1 -24 1 -28 0 -5 -1 -5 3 -2 9 4 6 14 9
22 5 13 -4 14 -3 3 10 -7 8 -16 12 -21 9 -5 -3 -6 3 -2 12 5 13 3 15 -8 9 -11
-6 -12 -5 -2 5 10 11 9 17 -4 32 -9 10 -12 18 -7 18 5 0 2 5 -6 10 -11 7 -12
10 -2 10 11 0 11 3 0 15 -30 33 -34 41 -30 54 3 9 0 11 -8 6 -10 -6 -12 -2 -8
13 4 15 2 22 -8 22 -12 0 -19 19 -15 43 0 4 -3 7 -7 7 -4 0 -9 12 -10 26 -1
15 -8 34 -15 42 -10 13 -9 14 3 7 13 -8 13 -6 2 7 -11 13 -11 21 -2 39 8 14 8
19 1 15 -7 -5 -10 4 -8 26 2 18 -1 39 -6 46 -6 8 -5 12 4 13 8 0 5 4 -6 9 -11
5 -14 9 -7 9 6 1 12 8 12 17 0 8 -4 13 -8 10 -5 -3 -9 1 -9 8 0 9 7 12 16 9
11 -4 9 -1 -4 10 -15 12 -17 18 -7 29 12 15 7 28 -12 28 -6 0 -4 -5 4 -10 9
-6 10 -10 3 -10 -16 0 -26 17 -13 25 6 4 5 11 -4 21 -15 14 -16 50 -2 72 5 8
2 10 -9 6 -11 -5 -14 -2 -8 12 5 13 3 15 -8 9 -11 -6 -12 -5 -1 6 15 16 16 29
1 29 -5 0 -7 -6 -3 -12 4 -8 3 -10 -2 -5 -5 5 -9 14 -9 20 -1 7 -7 11 -14 9
-7 -1 -10 2 -6 8 3 6 12 7 18 3 7 -4 6 0 -2 10 -7 9 -10 17 -5 17 5 1 -4 12
-21 26 -22 18 -25 23 -10 19 18 -6 18 -6 2 5 -9 6 -15 15 -12 21 3 5 -1 6 -11
2 -14 -5 -15 -3 -4 16 11 21 10 22 -8 12 -18 -9 -19 -8 -15 12 4 18 3 19 -7 7
-10 -13 -11 -11 -7 7 3 15 1 20 -9 16 -13 -5 -19 8 -15 30 1 5 -3 6 -9 2 -5
-3 -10 -1 -10 4 0 6 -7 11 -16 11 -9 0 -12 5 -8 12 5 8 0 9 -15 5 -19 -5 -21
-3 -9 11 7 9 8 14 3 9 -4 -4 -17 1 -28 10 -15 13 -19 14 -13 3 6 -12 5 -12 -6
1 -7 9 -19 14 -27 11 -8 -3 -11 0 -7 7 4 6 0 11 -9 11 -9 0 -31 10 -48 22 -18
12 -27 16 -20 8 9 -12 7 -15 -12 -15 -19 0 -21 3 -12 14 9 12 9 13 0 7 -8 -4
-13 -2 -13 4 0 6 -5 8 -10 5 -6 -4 -8 -10 -6 -14 3 -4 -2 -8 -10 -8 -8 0 -13
6 -10 12 2 6 -2 12 -10 12 -9 0 -13 -6 -9 -16 5 -13 4 -13 -12 1 -10 8 -24 13
-30 11 -7 -3 -13 0 -13 5 0 5 -6 10 -12 9 -42 -1 -68 4 -63 13 4 6 3 10 -2 9
-21 -4 -31 3 -36 21 -3 11 -1 18 3 15 5 -3 13 3 19 12 8 14 11 15 11 3 1 -10
4 -9 10 5 5 11 9 15 9 8 1 -7 13 -1 27 12 15 14 31 22 36 19 4 -3 7 0 6 8 -2
7 4 13 12 13 8 0 21 4 28 8 6 5 17 5 24 1 7 -5 8 -3 3 6 -5 8 -3 11 6 8 8 -3
20 2 27 11 9 11 11 11 6 2 -4 -9 6 -6 24 8 18 12 32 17 32 11 0 -6 5 -8 10 -5
6 4 7 11 4 17 -5 7 -1 9 9 5 9 -3 18 1 21 10 5 13 9 13 22 2 12 -10 15 -10 12
1 -2 7 3 15 11 18 9 3 11 0 7 -9 -4 -8 2 -4 13 9 11 13 25 21 31 17 5 -3 10
-2 10 4 0 6 7 7 17 4 11 -4 14 -3 9 5 -5 8 0 12 13 13 38 3 42 4 50 18 5 7 13
11 19 7 6 -3 17 0 25 8 8 8 17 12 21 9 3 -4 6 -1 6 6 0 7 5 9 12 5 7 -5 9 -2
6 7 -4 10 2 15 21 17 14 1 28 7 29 12 2 6 12 10 22 10 10 0 21 6 23 13 4 9 6
8 6 -2 1 -9 8 -6 21 9 13 15 20 18 20 9 0 -12 2 -12 9 0 5 7 14 10 20 7 7 -5
10 -2 9 6 -2 7 5 12 14 12 10 -1 15 3 12 8 -3 5 0 9 7 7 28 -3 40 1 33 13 -5
7 -3 8 6 3 8 -5 17 -2 24 6 6 8 16 14 21 15 24 3 55 17 55 26 0 5 5 6 10 3 6
-3 10 -1 10 6 0 6 8 9 19 6 15 -3 18 -1 14 11 -4 10 -2 13 5 8 6 -3 13 -2 17
4 4 6 10 8 15 5 4 -3 10 2 14 10 3 8 13 15 21 15 9 0 13 4 10 10 -3 6 1 7 9 4
9 -4 16 -1 16 6 0 7 8 10 19 7 15 -3 18 0 14 17 -4 17 -3 18 6 6 10 -14 16 -7
12 13 -1 5 3 6 8 2 6 -3 15 4 21 15 6 11 16 17 22 14 7 -5 9 -2 5 9 -3 9 -3
16 1 15 4 -1 18 2 31 6 18 6 21 10 10 17 -12 7 -12 9 0 9 17 0 76 50 59 50 -7
1 -3 6 10 13 12 7 19 16 16 20 -4 4 -3 7 2 7 6 0 19 7 30 16 10 8 12 12 4 9
-8 -4 0 6 18 22 24 21 29 32 21 40 -8 8 -6 11 7 10 11 -1 19 4 19 13 0 8 6 19
13 23 6 4 12 15 12 23 0 9 9 29 21 45 11 16 21 38 22 49 1 11 5 20 10 20 4 0
5 5 2 10 -3 6 -2 10 3 10 5 0 8 12 6 26 -2 17 2 24 10 21 9 -4 12 3 10 19 -1
13 2 24 7 24 6 0 8 4 4 9 -3 5 -1 12 5 16 6 4 8 11 5 16 -4 5 0 9 7 9 9 0 9 3
-2 10 -13 9 -13 12 1 23 9 6 14 18 11 25 -2 7 2 19 8 27 10 12 10 15 -1 15 -9
0 -10 3 -3 8 11 7 14 20 15 80 1 17 6 32 13 32 6 0 4 5 -4 10 -12 8 -12 10 -1
10 8 0 11 7 8 19 -2 10 -1 25 4 32 4 7 3 21 -2 30 -6 12 -5 20 3 25 7 5 8 3 3
-6 -6 -9 -4 -11 4 -6 9 6 8 12 -4 26 -13 14 -13 19 -2 29 8 6 13 22 11 36 -1
17 3 25 12 25 9 0 12 5 9 10 -3 6 -3 10 2 11 24 2 52 10 83 23 19 8 38 15 42
15 4 1 36 17 72 36 35 18 67 31 72 27 4 -4 4 -2 1 4 -4 7 3 14 18 18 14 4 23
11 20 16 -4 6 2 13 12 17 23 8 54 39 46 47 -4 3 1 6 10 6 10 0 17 7 17 15 0 8
5 15 11 15 6 0 9 7 6 14 -4 11 -1 13 11 9 9 -3 14 -3 10 2 -4 4 2 21 13 36 11
16 17 29 14 29 -4 0 1 7 9 16 9 8 16 24 16 34 0 10 5 20 11 22 6 2 12 16 12
31 1 15 8 29 14 32 7 2 10 11 7 20 -3 8 -1 15 6 15 6 0 8 5 5 10 -3 6 -1 10 5
10 6 0 8 5 5 10 -3 6 -1 10 6 10 7 0 10 3 6 6 -3 4 0 19 8 35 8 15 12 36 8 45
-4 12 -3 15 5 10 11 -6 17 5 13 27 0 4 3 7 8 7 5 0 8 8 6 17 -1 10 5 27 14 37
9 11 10 16 4 12 -7 -4 -13 -3 -13 2 0 6 7 12 15 16 8 3 12 12 9 21 -3 8 -1 15
5 15 6 0 8 6 5 13 -3 8 2 19 10 26 8 7 12 21 8 33 -3 13 -1 19 5 15 6 -4 9 6
8 23 -1 17 2 30 7 30 5 0 6 5 3 10 -3 5 0 10 7 10 10 0 10 2 -1 9 -9 6 -10 10
-2 12 7 3 13 11 14 19 2 8 6 21 10 28 5 6 5 17 2 22 -3 6 -2 10 4 10 5 0 8 11
7 25 -2 13 1 22 5 19 5 -3 10 0 10 5 3 26 4 30 12 37 4 4 7 12 7 18 0 6 -5 4
-10 -4 -5 -8 -10 -11 -10 -7 0 4 7 19 16 32 9 14 13 25 9 25 -4 0 -2 6 4 13 6
8 8 17 4 20 -3 4 -2 7 4 7 5 0 9 10 8 23 -1 12 3 25 9 29 7 5 6 8 -3 8 -11 0
-11 3 0 17 12 15 12 16 -1 8 -12 -6 -13 -5 -2 6 15 16 16 33 0 23 -7 -5 -8 -3
-3 7 11 17 14 49 5 49 -11 0 -9 44 3 52 9 6 9 8 0 8 -7 0 -13 7 -13 15 0 8 -5
15 -10 15 -12 0 -9 22 5 32 6 5 3 8 -7 8 -11 0 -16 6 -13 20 2 11 -1 20 -7 20
-6 0 -8 9 -5 20 3 11 0 18 -7 17 -6 -1 -10 8 -10 20 1 13 -3 20 -7 17 -5 -3
-9 2 -9 12 0 9 -8 23 -17 30 -15 11 -15 15 -5 22 11 8 11 10 -2 15 -9 4 -15
12 -14 19 2 7 -3 12 -10 10 -8 -1 -11 2 -8 7 4 5 0 12 -6 14 -10 4 -10 6 -1 6
7 1 10 8 7 16 -4 8 -10 12 -15 9 -5 -3 -9 4 -9 15 0 11 -5 23 -10 26 -6 4 -8
11 -5 16 4 5 1 9 -5 9 -13 0 -46 30 -33 30 4 1 -2 9 -14 19 -12 10 -19 21 -16
25 4 3 -3 6 -15 6 -12 0 -22 4 -22 10 0 13 -58 42 -70 35 -5 -3 -12 -1 -15 5
-5 8 -11 8 -20 0 -9 -8 -15 -8 -20 0 -3 6 -12 7 -18 3 -17 -10 -47 -11 -47 -1
0 5 -11 1 -25 -8 -14 -9 -25 -13 -25 -9 0 4 -7 2 -15 -5 -16 -13 -80 -18 -92
-6 -4 4 -1 11 6 15 10 6 10 10 2 16 -9 5 -9 11 1 23 11 13 11 14 -2 7 -13 -7
-13 -6 -2 7 7 9 15 33 17 55 2 21 7 54 11 73 3 19 6 52 6 73 0 22 4 37 11 37
8 0 8 3 2 8 -15 11 -17 32 -2 32 8 0 7 4 -3 10 -13 9 -13 11 0 20 12 8 12 10
1 10 -10 0 -11 3 -2 13 8 10 7 17 -2 27 -10 10 -9 11 2 5 11 -6 13 -2 9 19 -3
14 -2 26 1 26 4 0 5 16 3 36 -3 28 -1 35 8 29 9 -6 11 -4 4 6 -12 20 -16 51
-5 44 5 -3 12 -1 15 4 4 5 1 13 -5 17 -8 5 -9 3 -4 -6 5 -9 4 -11 -4 -6 -8 6
-9 12 -2 20 6 7 8 16 4 19 -3 4 0 7 8 7 11 0 11 2 -1 10 -11 7 -11 10 -2 10
10 0 10 5 2 20 -9 17 -8 19 7 13 16 -6 16 -5 4 10 -9 11 -10 17 -2 17 6 0 11
5 11 11 0 5 -6 7 -12 3 -9 -6 -9 -3 0 9 8 9 11 21 8 26 -4 5 -2 12 3 16 7 3 7
15 1 30 -7 18 -6 23 4 19 10 -4 12 5 10 33 -1 21 3 41 9 45 8 5 4 8 -8 8 -18
1 -18 2 -3 10 10 7 14 17 10 32 -3 14 -1 19 6 14 8 -4 10 -2 6 7 -3 8 0 18 5
22 6 3 8 11 4 18 -4 6 -7 30 -8 54 -1 36 1 40 14 30 12 -10 13 -9 3 10 -10 19
-9 24 7 32 10 6 20 9 22 8 2 -1 -2 3 -9 10 -11 9 -10 12 7 18 18 5 19 9 9 28
-10 19 -9 20 4 10 12 -11 14 -9 13 6 -1 11 -7 26 -14 34 -8 10 -9 17 -1 22 10
6 14 -1 10 -20 -1 -5 2 -6 7 -2 11 12 11 31 -2 39 -6 5 -5 8 3 8 7 0 10 5 7
10 -3 6 2 10 12 10 10 0 14 4 8 8 -13 9 -17 32 -6 32 5 0 12 -6 15 -12 3 -7 3
-1 1 14 -2 15 -6 32 -9 37 -4 5 1 17 10 25 8 9 11 16 5 16 -6 0 -11 8 -11 18
0 10 -5 23 -12 30 -9 9 -7 13 5 18 23 8 22 25 0 18 -15 -5 -15 -4 -3 5 8 5 11
13 7 17 -11 11 14 35 27 27 7 -5 4 -1 -6 8 -17 16 -17 17 2 22 18 5 21 21 8
42 -4 6 -3 17 3 25 5 8 9 20 9 25 0 6 -4 3 -10 -5 -6 -10 -9 -6 -8 16 1 17 -3
37 -7 44 -6 10 -3 12 11 7 14 -5 13 -2 -6 13 -17 14 -19 18 -7 14 17 -6 18 -5
3 29 -10 26 -12 39 -4 43 7 5 8 2 3 -6 -5 -8 -4 -11 2 -7 13 8 4 120 -11 129
-7 5 -8 8 0 8 6 0 11 7 11 15 0 9 -6 14 -13 11 -8 -3 -10 3 -7 17 4 18 3 19
-6 7 -14 -19 -14 -5 -1 20 9 16 8 18 -6 13 -14 -5 -15 -3 -5 15 8 15 8 23 -1
28 -7 5 -8 3 -3 -6 6 -9 4 -11 -5 -5 -10 6 -9 11 4 21 11 8 13 14 7 19 -14 8
-14 25 0 25 5 0 7 -4 4 -10 -3 -5 -1 -10 4 -10 9 0 9 37 0 48 -1 1 -2 8 -3 15
-1 6 -8 11 -15 9 -9 -2 -12 5 -9 22 4 17 1 23 -9 19 -8 -3 -13 2 -13 16 0 21
-32 46 -44 33 -4 -3 -4 1 -1 10 4 9 2 19 -4 23 -6 3 -11 14 -10 23 0 12 3 11
9 -5 5 -13 14 -23 20 -23 6 0 8 -5 4 -12 -5 -7 -3 -8 6 -3 10 6 9 11 -4 21 -9
6 -18 21 -19 32 0 11 -5 18 -9 16 -4 -3 -8 0 -8 6 0 6 -4 9 -8 6 -10 -6 -9 24
1 40 4 7 -2 10 -17 9 -26 -3 -30 20 -7 35 9 5 10 10 2 14 -6 4 -11 3 -11 -1 0
-5 -10 -10 -22 -10 -17 -2 -19 0 -9 7 8 4 16 14 17 22 1 7 6 22 10 32 6 15 4
17 -6 11 -10 -6 -12 -4 -7 8 4 11 2 14 -9 10 -7 -3 -14 0 -14 7 0 6 -6 8 -12
4 -8 -4 -10 -3 -5 2 5 5 13 9 18 9 14 0 11 20 -3 20 -7 1 -12 7 -10 14 1 7 -2
10 -8 6 -6 -3 -7 -12 -4 -18 4 -7 -2 -3 -13 8 -11 11 -18 25 -15 30 3 6 -1 5
-8 -2 -18 -17 -72 21 -63 44 5 12 3 14 -8 8 -12 -8 -12 -6 0 8 11 14 11 17 0
17 -10 0 -10 3 -2 11 6 6 9 18 6 27 -4 10 -2 13 5 8 6 -3 14 -2 17 4 4 6 3 10
-2 9 -22 -4 -25 3 -7 17 10 8 14 13 8 10 -7 -3 -14 1 -18 9 -3 10 1 15 11 15
15 0 15 2 -2 13 -10 8 -15 19 -11 25 3 6 2 13 -4 17 -6 4 -8 11 -4 16 3 5 9 7
13 5 4 -3 8 1 8 9 0 8 -3 14 -6 13 -20 -2 -31 4 -31 17 0 8 5 15 11 15 5 0 7
-5 3 -12 -5 -7 -3 -8 6 -3 10 6 9 11 -5 21 -10 7 -22 11 -26 8 -5 -3 -7 10 -5
28 3 29 2 30 -9 14 -8 -10 -11 -24 -8 -32 3 -8 1 -14 -4 -14 -11 0 -11 39 0
58 5 6 5 12 1 12 -3 0 -1 6 5 13 8 10 7 14 -3 14 -8 0 -13 -8 -11 -18 3 -12
-1 -16 -11 -12 -7 3 -11 10 -7 16 3 5 -2 16 -12 24 -11 7 -14 13 -8 13 17 0
23 39 8 54 -15 15 -15 47 0 58 6 4 1 8 -10 8 -17 0 -17 2 -5 10 8 5 10 10 3
10 -6 0 -9 9 -6 20 3 12 0 20 -7 20 -6 0 -10 8 -8 18 2 9 -4 26 -14 36 -9 10
-15 22 -13 26 2 3 -5 13 -16 20 -20 15 -27 36 -7 24 7 -4 8 -3 4 4 -4 7 -15
12 -24 12 -15 0 -15 2 -2 10 12 8 10 10 -10 11 -23 0 -23 1 -5 9 11 5 14 9 7
9 -7 1 -10 6 -7 11 3 6 2 10 -4 10 -5 0 -12 -6 -15 -12 -3 -7 -3 -3 -1 9 3 12
1 25 -6 28 -8 6 -7 10 2 16 10 6 8 8 -8 7 -14 -2 -19 -7 -15 -18 5 -11 2 -11
-12 3 -10 10 -25 16 -33 13 -8 -3 -11 -1 -8 4 3 6 2 10 -4 10 -5 0 -13 9 -16
21 -5 16 -10 18 -21 8 -17 -14 -19 2 -1 20 10 11 10 13 0 7 -7 -4 -13 -3 -13
3 0 5 -9 13 -21 16 -15 5 -17 10 -9 20 8 10 8 15 -1 21 -8 4 -9 3 -5 -4 13
-22 -6 -12 -25 12 -12 15 -27 23 -39 21 -11 -2 -20 0 -20 6 0 5 -9 9 -20 9
-11 0 -20 5 -20 10 0 6 -9 10 -20 10 -12 0 -20 7 -20 18 0 14 -2 15 -10 2 -8
-13 -10 -12 -10 3 0 10 -4 15 -10 12 -5 -3 -10 -2 -10 4 0 6 -7 7 -17 4 -10
-4 -14 -2 -10 4 4 6 0 14 -9 17 -8 3 -13 2 -10 -3 3 -5 0 -11 -7 -14 -10 -4
-13 2 -9 19 2 14 0 24 -7 24 -7 0 -10 -4 -6 -9 8 -14 -25 -42 -38 -34 -12 8
-33 13 -54 15 -9 1 -10 5 -2 14 7 8 6 14 -2 20 -8 4 -9 3 -5 -4 4 -7 1 -12 -9
-12 -10 0 -13 -5 -9 -12 4 -7 3 -8 -4 -4 -6 4 -9 13 -5 21 3 10 -1 15 -13 13
-39 -3 -55 2 -48 15 5 9 4 9 -6 0 -11 -10 -16 -9 -27 5 -8 9 -12 11 -8 5 7
-14 -55 16 -67 32 -5 6 -8 4 -8 -5 -1 -13 -2 -13 -13 0 -7 9 -19 15 -27 15 -8
0 -24 7 -34 17 -16 14 -22 15 -35 5 -12 -9 -13 -9 -7 1 6 11 -11 17 -36 13 -5
0 -8 3 -8 7 0 5 -7 9 -15 10 -8 1 -21 3 -29 4 -8 1 -14 6 -13 12 1 6 -6 10
-17 8 -11 -2 -15 1 -11 7 3 7 -2 11 -14 11 -12 0 -21 4 -21 10 0 12 -22 9 -32
-5 -4 -5 -8 1 -8 15 0 20 -2 22 -10 10 -8 -12 -10 -12 -10 -1 0 8 -7 11 -20 8
-14 -4 -20 0 -20 11 0 15 -2 15 -10 2 -9 -13 -10 -13 -10 0 0 10 -3 11 -8 4
-5 -8 -13 -5 -27 8 -20 19 -20 19 0 13 16 -6 17 -5 5 4 -20 14 -3170 15 -3170
1z m4149 -394 c9 -11 9 -16 0 -22 -8 -4 -9 -3 -5 4 4 7 2 12 -3 12 -6 0 -11 5
-11 10 0 14 5 13 19 -4z m416 -696 c-3 -5 -12 -10 -18 -10 -7 0 -6 4 3 10 19
12 23 12 15 0z m-5649 -147 c-3 -4 -6 -1 -6 5 0 7 -8 12 -17 12 -15 0 -16 2
-3 10 10 6 17 4 23 -6 5 -9 6 -18 3 -21z m-23 -8 c-3 -9 -8 -14 -10 -11 -3 3
-2 9 2 15 9 16 15 13 8 -4z m28 -28 c-10 -9 -11 -8 -5 6 3 10 9 15 12 12 3 -3
0 -11 -7 -18z m-66 -197 c3 -5 1 -10 -4 -10 -6 0 -11 5 -11 10 0 6 2 10 4 10
3 0 8 -4 11 -10z m-55 -40 c0 -5 -2 -10 -4 -10 -3 0 -8 5 -11 10 -3 6 -1 10 4
10 6 0 11 -4 11 -10z m5934 -6 c3 -8 2 -12 -4 -9 -6 3 -10 10 -10 16 0 14 7
11 14 -7z m-5957 -139 c0 -8 -5 -11 -10 -8 -7 4 -8 -1 -3 -13 5 -14 4 -16 -4
-8 -6 6 -8 18 -4 27 8 21 21 22 21 2z m-42 -115 c-3 -5 -1 -10 4 -10 6 0 11
-4 11 -9 0 -8 -8 -8 -39 -2 -5 1 20 31 26 31 2 0 1 -4 -2 -10z m6169 -108 c3
-5 -1 -9 -9 -9 -8 0 -12 4 -9 9 3 4 7 8 9 8 2 0 6 -4 9 -8z m43 -557 c0 -8 -4
-12 -9 -9 -5 3 -6 10 -3 15 9 13 12 11 12 -6z m-1522 -5665 c3 -6 -1 -7 -9 -4
-18 7 -21 14 -7 14 6 0 13 -4 16 -10z"/>
<path d="M6496 8783 c-6 -14 -5 -15 5 -6 7 7 10 15 7 18 -3 3 -9 -2 -12 -12z"/>
<path d="M6495 8750 c-3 -6 1 -7 9 -4 18 7 21 14 7 14 -6 0 -13 -4 -16 -10z"/>
<path d="M6538 8748 c18 -18 14 -32 -5 -17 -12 11 -17 11 -20 2 -5 -14 -5 -24
0 -20 2 1 11 -4 20 -11 12 -11 17 -11 23 0 11 17 13 48 2 42 -4 -3 -8 0 -8 5
0 6 -5 11 -12 11 -9 0 -9 -3 0 -12z m17 -30 c5 4 5 1 1 -6 -6 -9 -11 -10 -20
-3 -7 6 -17 7 -21 3 -5 -4 -5 -1 -1 6 6 9 11 10 20 3 7 -6 17 -7 21 -3z"/>
<path d="M6936 8491 c-6 -8 5 -20 31 -35 6 -3 15 -1 19 6 4 7 4 10 -1 6 -11
-10 -47 11 -40 23 4 5 4 9 1 9 -3 0 -7 -4 -10 -9z"/>
<path d="M7267 7819 c7 -7 15 -10 18 -7 3 3 -2 9 -12 12 -14 6 -15 5 -6 -5z"/>
<path d="M7275 7790 c3 -5 8 -10 11 -10 2 0 4 5 4 10 0 6 -5 10 -11 10 -5 0
-7 -4 -4 -10z"/>
<path d="M1350 7629 c0 -5 5 -7 10 -4 6 3 10 8 10 11 0 2 -4 4 -10 4 -5 0 -10
-5 -10 -11z"/>
<path d="M7425 7440 c-3 -6 1 -7 9 -4 18 7 21 14 7 14 -6 0 -13 -4 -16 -10z"/>
<path d="M1376 7312 c-3 -5 1 -9 9 -9 8 0 12 4 9 9 -3 4 -7 8 -9 8 -2 0 -6 -4
-9 -8z"/>
<path d="M1376 7275 c4 -8 11 -15 16 -15 6 0 5 6 -2 15 -7 8 -14 15 -16 15 -2
0 -1 -7 2 -15z"/>
<path d="M1406 7277 c3 -10 9 -15 12 -12 3 3 0 11 -7 18 -10 9 -11 8 -5 -6z"/>
<path d="M1356 7244 c7 -37 16 -47 12 -12 -2 15 -7 30 -11 34 -3 3 -4 -6 -1
-22z"/>
<path d="M7633 6785 c0 -8 4 -12 9 -9 5 3 6 10 3 15 -9 13 -12 11 -12 -6z"/>
<path d="M7610 6750 c0 -5 5 -10 11 -10 5 0 7 5 4 10 -3 6 -8 10 -11 10 -2 0
-4 -4 -4 -10z"/>
<path d="M1434 6532 c4 -3 14 -7 22 -8 9 -1 13 0 10 4 -4 3 -14 7 -22 8 -9 1
-13 0 -10 -4z"/>
<path d="M7490 5990 c0 -5 5 -10 11 -10 5 0 7 5 4 10 -3 6 -8 10 -11 10 -2 0
-4 -4 -4 -10z"/>
</g>
</svg>
